<?xml version="1.0" encoding="UTF-8"?><!DOCTYPE svg PUBLIC "-//W3C//DTD SVG 1.1//EN" "http://www.w3.org/Graphics/SVG/1.1/DTD/svg11.dtd"><svg xmlns="http://www.w3.org/2000/svg" xmlns:xlink="http://www.w3.org/1999/xlink"><symbol id="arrow" viewBox="0 0 351.26 600.26"><path d="M245.88 300.19L14.72 85.38a50.08 50.08 0 0170.94-70.71l250.91 250.11a49.28 49.28 0 0110.92 16.31 48.76 48.76 0 013.77 18.91v.26a48.76 48.76 0 01-3.77 18.91 49.44 49.44 0 01-10.92 16.31L85.65 585.61a50.09 50.09 0 11-70.94-70.73l231.17-214.69" fill="#3e3e40"/></symbol><symbol id="facebook-icon" viewBox="0 0 300.12 600"><path d="M199.55 600H66.49V316.67H.03V207.5h66.49V142C66.49 53 104.03 0 210.68 0h88.82v109.19h-55.52c-41.48 0-44.24 15.26-44.24 43.71l-.18 54.59h100.56l-11.78 109.18h-88.79z" fill="#a9abb0" fill-rule="evenodd"/></symbol><symbol id="instagram-icon" viewBox="0 0 600.33 600.35"><path d="M460.42 103.92a36 36 0 1036 36 36 36 0 00-36-36m138.11 72.51c-1.46-32-6.55-53.76-13.94-72.84a147.18 147.18 0 00-34.63-53.18 147.22 147.22 0 00-53.19-34.63c-19.05-7.43-40.88-12.43-72.85-13.94S381.68 0 300.19 0s-91.74.35-123.75 1.84-53.78 6.51-72.91 13.94a147.27 147.27 0 00-53.18 34.63 147.42 147.42 0 00-34.62 53.18c-7.4 19.07-12.48 40.88-13.94 72.84S-.04 218.66-.04 300.18s.39 91.75 1.83 123.77 6.55 53.77 13.94 72.85a153.56 153.56 0 0087.8 87.8c19.08 7.43 40.92 12.49 72.86 13.95s42.23 1.8 123.75 1.8 91.72-.35 123.73-1.8 53.8-6.51 72.86-13.95a153.65 153.65 0 0087.82-87.81c7.4-19.07 12.48-40.91 13.94-72.85s1.79-42.23 1.79-123.77-.35-91.74-1.79-123.75m-54 245c-1.34 29.25-6.22 45.15-10.35 55.75a99.22 99.22 0 01-57 56.92c-10.57 4.13-26.48 9-55.73 10.37-31.67 1.44-41.16 1.74-121.29 1.74s-89.63-.29-121.31-1.74c-29.25-1.35-45.14-6.24-55.71-10.37a99.25 99.25 0 01-57-56.92c-4.15-10.6-9-26.5-10.36-55.75-1.44-31.65-1.73-41.16-1.73-121.3s.29-89.63 1.73-121.27c1.36-29.26 6.22-45.18 10.36-55.77a92.81 92.81 0 0122.56-34.43 93.08 93.08 0 0134.51-22.46c10.57-4.09 26.46-9 55.71-10.34 31.69-1.45 41.16-1.77 121.31-1.77s89.63.32 121.29 1.77c29.25 1.33 45.16 6.25 55.73 10.34a93.09 93.09 0 0134.51 22.46 93.12 93.12 0 0122.46 34.49c4.13 10.59 9 26.51 10.35 55.77 1.44 31.64 1.73 41.13 1.73 121.27s-.28 89.65-1.73 121.3M300.19 146.06a154.14 154.14 0 10154.14 154.12 154.15 154.15 0 00-154.14-154.12m0 254.18a100.06 100.06 0 11100.05-100.06 100.08 100.08 0 01-100.05 100.07" fill="#a9abb0" fill-rule="evenodd"/></symbol><symbol id="twitter-icon" viewBox="0 0 728.9 600.27"><path d="M728.9 71.1a296.5 296.5 0 01-85.91 23.89 151.69 151.69 0 0065.77-83.81 295.6 295.6 0 01-95 36.67A148.32 148.32 0 00504.64 0c-82.59 0-149.53 67.91-149.53 151.6a154.92 154.92 0 003.86 34.55c-124.26-6.3-234.45-66.63-308.18-158.31a153 153 0 0046.27 202.28 148.75 148.75 0 01-67.73-19V213c0 73.46 51.5 134.63 119.93 148.65a148.37 148.37 0 01-67.49 2.58c19 60.17 74.23 104 139.68 105.18a297.75 297.75 0 01-185.73 64.97A307.16 307.16 0 010 532.29a419.6 419.6 0 00229.25 68c275.09 0 425.48-230.9 425.48-431.14 0-6.55-.18-13.06-.44-19.56a305.31 305.31 0 0074.61-78.42z" fill="#a9abb0" fill-rule="evenodd"/></symbol><symbol id="youtube-icon" viewBox="0 0 852.57 600.97"><path d="M426.49 0h-.39S247.16 0 127.86 8.65c-16.66 2-53 2.15-85.43 36.2-25.58 25.93-33.86 84.79-33.86 84.79S0 198.8 0 267.94v64.83c0 69.14 8.57 138.29 8.57 138.29s8.3 58.87 33.88 84.82c32.43 34 75 32.95 94 36.52 68.2 6.55 289.88 8.57 289.88 8.57s179.13-.26 298.4-8.91c16.68-2 53-2.16 85.44-36.17 25.58-26 33.9-84.82 33.9-84.82s8.5-69.16 8.5-138.3v-64.83c0-69.14-8.53-138.29-8.53-138.29s-8.32-58.87-33.9-84.79c-32.39-34-68.75-34.21-85.44-36.2C605.44 0 426.49 0 426.49 0" fill="#a9abb0"/><path d="M338.27 411.32l230.3-119.61-230.32-120.46z" fill="#fff"/></symbol></svg>